<?xml version="1.0" encoding="UTF-8" standalone="no" ?>
<!DOCTYPE svg PUBLIC "-//W3C//DTD SVG 1.1//EN" "http://www.w3.org/Graphics/SVG/1.1/DTD/svg11.dtd">
<svg xmlns="http://www.w3.org/2000/svg" xmlns:xlink="http://www.w3.org/1999/xlink" version="1.1" width="256" height="192" viewBox="0 0 640 480" xml:space="preserve">
<desc>Created with Fabric.js 3.6.3</desc>
<defs>
</defs>
<g transform="matrix(0.66 0 0 0.57 315.75 228.09)"  >
<g style=""   >
		<g transform="matrix(1 0 0 1 125.65 -242.88)" id="company_details"  >
<path style="stroke: none; stroke-width: 1; stroke-dasharray: none; stroke-linecap: butt; stroke-dashoffset: 0; stroke-linejoin: miter; stroke-miterlimit: 4; fill: rgb(28,148,210); fill-rule: nonzero; opacity: 1;"  transform=" translate(-665.65, -297.12)" d="M 549.83 188.78 v 127.5 c 0 13.13 -1.38 26.79 2.6 39.52 c 4.22 13.5 15.33 24.58 26.44 32.81 c 19.54 14.49 44 21.34 67.6 13.66 l 31 -10.13 L 766 363.27 l 15.71 -5.13 c -12.18 -32 -23.19 -66.39 -56.06 -55.18 l -20.31 7 c -35.07 13.11 -87.65 -16.42 -87.65 -60.59 l -0.06 -34.21 C 617 195.05 589.45 188.8 549.83 188.78 Z" stroke-linecap="round" />
</g>
		<g transform="matrix(1 0 0 1 -128.09 -242.88)" id="company_details"  >
<path style="stroke: none; stroke-width: 1; stroke-dasharray: none; stroke-linecap: butt; stroke-dashoffset: 0; stroke-linejoin: miter; stroke-miterlimit: 4; fill: rgb(28,148,210); fill-rule: nonzero; opacity: 1;"  transform=" translate(-411.91, -297.12)" d="M 295.56 358.11 l 73.87 23.39 l 47.68 15.1 c 12.51 4 25.12 9.4 38.47 9.45 c 14.13 0.06 28.06 -7.19 39.25 -15.29 c 19.71 -14.25 33.63 -35.51 33.43 -60.32 q -0.13 -16.33 -0.29 -32.66 l -0.8 -93.08 L 527 188.19 c -34.16 1.95 -70.29 2.06 -69.53 36.78 l 0.58 21.49 c 1.91 37.39 -42.12 78.6 -84.23 65.26 l -32.62 -10.27 C 321.81 296 307.54 320.34 295.56 358.11 Z" stroke-linecap="round" />
</g>
		<g transform="matrix(1 0 0 1 -1.94 61.05)" id="company_details"  >
<path style="stroke: none; stroke-width: 1; stroke-dasharray: none; stroke-linecap: butt; stroke-dashoffset: 0; stroke-linejoin: miter; stroke-miterlimit: 4; fill: rgb(28,148,210); fill-rule: nonzero; opacity: 1;"  transform=" translate(-538.06, -601.05)" d="M 681.61 659.28 L 635.5 597 l -29.76 -40.19 c -7.82 -10.54 -14.84 -22.35 -25.62 -30.21 c -11.42 -8.34 -27 -10.63 -40.77 -10.64 c -24.32 0 -48.06 9 -62.45 29.26 L 458 571.85 l -53.93 75.86 l -9.57 13.46 c 28.81 18.45 58.14 39.55 77.89 11 l 12.13 -17.74 c 20.39 -31.41 80.21 -39 106.5 -3.47 l 20.4 27.45 C 623.89 694.23 649.76 682.85 681.61 659.28 Z" stroke-linecap="round" />
</g>
		<g transform="matrix(1 0 0 1 161.01 -27.54)" id="company_details"  >
<path style="stroke: none; stroke-width: 1; stroke-dasharray: none; stroke-linecap: butt; stroke-dashoffset: 0; stroke-linejoin: miter; stroke-miterlimit: 4; fill: rgb(28,148,210); fill-rule: nonzero; opacity: 1;"  transform=" translate(-701.01, -512.46)" d="M 789.68 376.34 l -73.86 23.44 l -47.67 15.13 c -12.51 4 -25.95 6.79 -36.88 14.43 c -11.59 8.11 -18.79 22.05 -23.28 35.12 c -7.89 23 -7 48.4 7.44 68.57 q 9.51 13.26 19.05 26.52 l 54.28 75.61 l 9.64 13.42 c 26.79 -21.28 56.26 -42.19 35.63 -70.13 l -12.85 -17.22 c -23.1 -29.47 -10.86 -88.51 31.24 -101.87 L 785 449 C 804 442.26 801.65 414.11 789.68 376.34 Z" stroke-linecap="round" />
</g>
		<g transform="matrix(1 0 0 1 -161.44 -26.78)" id="company_details"  >
<path style="stroke: none; stroke-width: 1; stroke-dasharray: none; stroke-linecap: butt; stroke-dashoffset: 0; stroke-linejoin: miter; stroke-miterlimit: 4; fill: rgb(28,148,210); fill-rule: nonzero; opacity: 1;"  transform=" translate(-378.56, -513.22)" d="M 375.85 650.36 l 46.25 -62.17 L 452 548.06 c 7.83 -10.53 17.09 -20.67 21.5 -33.26 c 4.67 -13.35 2.37 -28.87 -1.63 -42.1 c -7 -23.29 -22.57 -43.39 -46.09 -51.31 l -31 -10.4 l -88.23 -29.65 l -15.66 -5.26 c -9.31 32.92 -21 67.11 12 77.73 l 20.5 6.48 c 36 10.41 60.52 65.49 34.16 100.93 L 337.22 588.7 C 325.69 605.24 344.07 626.7 375.85 650.36 Z" stroke-linecap="round" />
</g>
		<g transform="matrix(1 0 0 1 3.57 268.39)" style="" id="company_details"  >
		<text xml:space="preserve" font-family="ProximaNova-Black, Proxima Nova" font-size="135.15" font-style="normal" font-weight="800" style="stroke: none; stroke-width: 1; stroke-dasharray: none; stroke-linecap: butt; stroke-dashoffset: 0; stroke-linejoin: miter; stroke-miterlimit: 4; fill: rgb(35,31,32); fill-rule: nonzero; opacity: 1; white-space: pre;" ><tspan x="-397.99" y="42.46" >INDOSCULP</tspan></text>
</g>
</g>
</g>
</svg>