<svg width="729" height="650" viewBox="0 0 729 650" fill="none" xmlns="http://www.w3.org/2000/svg">
<g clip-path="url(#clip0_2_40)">
<path d="M373.39 0.592255V128.578C373.39 141.758 372.059 155.471 375.9 168.249C379.972 181.801 390.694 192.923 401.415 201.184C420.272 215.729 443.877 222.606 466.651 214.896L496.568 204.728L582.002 175.748L597.163 170.598C585.409 138.476 574.784 103.955 543.063 115.208L523.463 122.234C489.619 135.394 438.878 105.752 438.878 61.4133L438.82 27.0728C438.212 6.88617 411.625 0.612331 373.39 0.592255Z" fill="#1C94D2"/>
<path d="M128.011 170.568L199.298 194.047L245.311 209.205C257.384 213.22 269.553 218.641 282.436 218.691C296.072 218.751 309.515 211.473 320.313 203.342C339.334 189.038 352.768 167.697 352.575 142.792C352.491 131.864 352.398 120.936 352.295 110.008L351.523 16.5729L351.359 0C318.393 1.95744 283.526 2.06785 284.26 36.9202L284.819 58.4922C286.663 96.0248 244.172 137.392 203.535 124.001L172.055 113.692C153.343 108.221 139.572 132.654 128.011 170.568Z" fill="#1C94D2"/>
<path d="M500.563 472.886L456.065 410.369L427.346 370.026C419.799 359.445 413.024 347.59 402.621 339.7C391.601 331.328 376.565 329.03 363.277 329.02C339.807 329.02 316.897 338.054 303.01 358.391L284.771 385.123L232.727 461.272L223.491 474.783C251.294 493.304 279.599 514.484 298.658 485.825L310.364 468.018C330.041 436.488 387.77 428.869 413.14 464.535L432.827 492.089C444.861 507.969 469.826 496.546 500.563 472.886Z" fill="#1C94D2"/>
<path d="M604.854 188.867L533.577 212.397L487.574 227.584C475.501 231.6 462.531 234.4 451.983 242.069C440.798 250.21 433.85 264.204 429.517 277.323C421.903 300.411 422.762 325.908 436.697 346.155C442.815 355.029 448.943 363.902 455.081 372.776L507.463 448.674L516.766 462.145C542.619 440.784 571.059 419.795 551.15 391.748L538.749 374.462C516.457 344.88 528.269 285.615 568.897 272.204L600.338 261.804C618.674 255.039 616.406 226.781 604.854 188.867Z" fill="#1C94D2"/>
<path d="M205.494 463.932L250.126 401.525L278.981 361.242C286.537 350.672 295.474 340.493 299.729 327.855C304.236 314.454 302.016 298.875 298.156 285.595C291.401 262.216 276.375 242.039 253.678 234.089L223.762 223.65L138.617 193.886L123.504 188.606C114.52 221.652 103.238 255.972 135.085 266.633L154.868 273.138C189.609 283.587 213.272 338.877 187.833 374.452L168.214 402.037C157.087 418.64 174.825 440.182 205.494 463.932Z" fill="#1C94D2"/>
</g>
<mask id="mask0_2_40" style="mask-type:alpha" maskUnits="userSpaceOnUse" x="0" y="522" width="729" height="128">
<g clip-path="url(#clip1_2_40)">
<path d="M24.7467 633.898H12.0764V537.814H24.7467V633.898ZM121.82 633.898H109.083L60.7119 559.855V633.898H47.9756V537.814H60.7119L109.215 612.186V537.814H121.82V633.898ZM144.323 633.898V537.814H171.445C179.804 537.814 187.195 539.662 193.618 543.358C200.041 547.053 204.991 552.31 208.466 559.129C211.986 565.949 213.768 573.78 213.812 582.622V588.76C213.812 597.822 212.052 605.763 208.532 612.582C205.057 619.401 200.063 624.637 193.552 628.288C187.085 631.94 179.54 633.81 170.917 633.898H144.323ZM156.993 548.241V623.537H170.323C180.09 623.537 187.679 620.501 193.09 614.43C198.546 608.359 201.273 599.714 201.273 588.496V582.886C201.273 571.976 198.7 563.507 193.552 557.48C188.449 551.409 181.19 548.329 171.775 548.241H156.993ZM306.925 588.958C306.925 598.372 305.341 606.599 302.174 613.638C299.006 620.633 294.519 625.979 288.712 629.674C282.904 633.37 276.129 635.217 268.386 635.217C260.819 635.217 254.11 633.37 248.259 629.674C242.408 625.935 237.854 620.633 234.599 613.77C231.387 606.863 229.737 598.878 229.649 589.815V582.886C229.649 573.648 231.255 565.487 234.467 558.404C237.678 551.321 242.21 545.909 248.061 542.17C253.956 538.386 260.687 536.494 268.254 536.494C275.953 536.494 282.728 538.364 288.58 542.104C294.475 545.799 299.006 551.189 302.174 558.272C305.341 565.311 306.925 573.516 306.925 582.886V588.958ZM294.321 582.754C294.321 571.36 292.033 562.627 287.458 556.556C282.882 550.441 276.481 547.383 268.254 547.383C260.247 547.383 253.934 550.441 249.315 556.556C244.739 562.627 242.386 571.074 242.254 581.896V588.958C242.254 600 244.563 608.689 249.183 615.024C253.846 621.315 260.247 624.461 268.386 624.461C276.569 624.461 282.904 621.491 287.392 615.552C291.879 609.569 294.189 601.012 294.321 589.881V582.754ZM354.241 591.069C343.374 587.946 335.455 584.118 330.484 579.587C325.557 575.011 323.093 569.38 323.093 562.693C323.093 555.126 326.107 548.879 332.134 543.952C338.205 538.98 346.08 536.494 355.759 536.494C362.358 536.494 368.231 537.77 373.378 540.322C378.57 542.874 382.573 546.393 385.389 550.881C388.248 555.368 389.678 560.273 389.678 565.597H376.942C376.942 559.789 375.094 555.236 371.399 551.936C367.703 548.593 362.49 546.921 355.759 546.921C349.511 546.921 344.628 548.307 341.109 551.079C337.633 553.806 335.895 557.612 335.895 562.495C335.895 566.411 337.545 569.732 340.845 572.46C344.188 575.143 349.841 577.607 357.804 579.851C365.811 582.094 372.058 584.58 376.546 587.308C381.077 589.991 384.421 593.137 386.576 596.744C388.776 600.352 389.876 604.597 389.876 609.481C389.876 617.268 386.84 623.515 380.769 628.222C374.698 632.886 366.581 635.217 356.418 635.217C349.819 635.217 343.66 633.964 337.941 631.456C332.222 628.904 327.8 625.429 324.677 621.029C321.597 616.63 320.057 611.636 320.057 606.049H332.794C332.794 611.856 334.927 616.454 339.195 619.841C343.506 623.185 349.247 624.857 356.418 624.857C363.106 624.857 368.231 623.493 371.794 620.765C375.358 618.038 377.14 614.32 377.14 609.613C377.14 604.905 375.49 601.276 372.19 598.724C368.891 596.129 362.908 593.577 354.241 591.069ZM476.852 603.41C475.665 613.572 471.903 621.425 465.568 626.968C459.277 632.468 450.896 635.217 440.425 635.217C429.075 635.217 419.968 631.148 413.105 623.009C406.286 614.87 402.876 603.982 402.876 590.343V581.105C402.876 572.174 404.46 564.321 407.628 557.546C410.839 550.771 415.371 545.579 421.222 541.972C427.073 538.32 433.848 536.494 441.547 536.494C451.754 536.494 459.937 539.354 466.096 545.073C472.255 550.749 475.841 558.624 476.852 568.698H464.116C463.016 561.043 460.619 555.5 456.923 552.068C453.272 548.637 448.146 546.921 441.547 546.921C433.452 546.921 427.095 549.913 422.476 555.896C417.9 561.879 415.613 570.392 415.613 581.435V590.739C415.613 601.166 417.79 609.459 422.146 615.618C426.501 621.777 432.594 624.857 440.425 624.857C447.464 624.857 452.854 623.273 456.593 620.105C460.377 616.894 462.884 611.329 464.116 603.41H476.852ZM561.849 537.814V603.146C561.805 612.208 558.946 619.621 553.27 625.385C547.639 631.148 539.984 634.381 530.305 635.085L526.94 635.217C516.425 635.217 508.044 632.38 501.797 626.704C495.55 621.029 492.382 613.22 492.294 603.278V537.814H504.833V602.882C504.833 609.833 506.746 615.244 510.574 619.115C514.401 622.943 519.857 624.857 526.94 624.857C534.111 624.857 539.588 622.943 543.372 619.115C547.199 615.288 549.113 609.899 549.113 602.948V537.814H561.849ZM594.581 623.537H640.115V633.898H581.844V537.814H594.581V623.537ZM667.237 596.283V633.898H654.567V537.814H690.004C700.519 537.814 708.746 540.498 714.685 545.865C720.668 551.233 723.66 558.338 723.66 567.18C723.66 576.507 720.734 583.7 714.883 588.76C709.075 593.775 700.739 596.283 689.872 596.283H667.237ZM667.237 585.922H690.004C696.779 585.922 701.97 584.338 705.578 581.171C709.185 577.959 710.989 573.34 710.989 567.312C710.989 561.593 709.185 557.018 705.578 553.586C701.97 550.155 697.021 548.373 690.73 548.241H667.237V585.922Z" fill="#231F20"/>
</g>
</mask>
<g mask="url(#mask0_2_40)">
<rect x="-21" y="512" width="771" height="138" fill="black"/>
</g>
<defs>
<clipPath id="clip0_2_40">
<rect width="500" height="500" fill="white" transform="translate(114)"/>
</clipPath>
<clipPath id="clip1_2_40">
<rect width="729" height="128" fill="white" transform="translate(0 522)"/>
</clipPath>
</defs>
</svg>
