<svg width="500" height="500" viewBox="0 0 500 500" fill="none" xmlns="http://www.w3.org/2000/svg">
<g clip-path="url(#clip0_2_12)">
<path d="M259.39 0.592247V128.578C259.39 141.758 258.059 155.471 261.9 168.249C265.972 181.801 276.694 192.923 287.415 201.184C306.272 215.729 329.877 222.606 352.651 214.896L382.568 204.728L468.002 175.748L483.163 170.598C471.409 138.476 460.784 103.955 429.063 115.208L409.463 122.234C375.619 135.394 324.878 105.752 324.878 61.4133L324.82 27.0728C324.212 6.88616 297.625 0.612323 259.39 0.592247Z" fill="#1C94D2"/>
<path d="M14.0108 170.568L85.298 194.047L131.311 209.205C143.384 213.22 155.553 218.641 168.436 218.691C182.072 218.751 195.515 211.473 206.313 203.342C225.334 189.038 238.768 167.697 238.575 142.792C238.491 131.864 238.398 120.936 238.295 110.008L237.523 16.5729L237.359 0C204.393 1.95744 169.526 2.06785 170.26 36.9202L170.819 58.4922C172.663 96.0248 130.172 137.392 89.5345 124.001L58.0551 113.692C39.343 108.221 25.572 132.654 14.0108 170.568Z" fill="#1C94D2"/>
<path d="M386.563 472.886L342.065 410.369L313.346 370.026C305.799 359.445 299.024 347.59 288.621 339.7C277.601 331.328 262.565 329.03 249.277 329.02C225.807 329.02 202.897 338.054 189.01 358.391L170.771 385.123L118.727 461.272L109.491 474.783C137.294 493.304 165.599 514.484 184.658 485.825L196.364 468.018C216.041 436.488 273.77 428.869 299.14 464.535L318.827 492.089C330.861 507.969 355.826 496.546 386.563 472.886Z" fill="#1C94D2"/>
<path d="M490.854 188.867L419.577 212.397L373.574 227.584C361.501 231.6 348.531 234.4 337.983 242.069C326.798 250.21 319.85 264.204 315.517 277.323C307.903 300.411 308.762 325.908 322.697 346.155C328.815 355.029 334.943 363.902 341.081 372.776L393.463 448.674L402.766 462.145C428.619 440.784 457.059 419.795 437.15 391.748L424.749 374.462C402.457 344.88 414.269 285.615 454.897 272.204L486.338 261.804C504.674 255.039 502.406 226.781 490.854 188.867Z" fill="#1C94D2"/>
<path d="M91.4936 463.932L136.126 401.525L164.981 361.242C172.537 350.672 181.474 340.493 185.729 327.855C190.236 314.454 188.016 298.875 184.156 285.595C177.401 262.216 162.375 242.039 139.678 234.089L109.762 223.65L24.6166 193.886L9.50416 188.606C0.519673 221.652 -10.7616 255.972 21.0846 266.633L40.8678 273.138C75.6091 283.587 99.2717 338.877 73.8334 374.452L54.2142 402.037C43.0874 418.64 60.8247 440.182 91.4936 463.932Z" fill="#1C94D2"/>
</g>
<defs>
<clipPath id="clip0_2_12">
<rect width="500" height="500" fill="white"/>
</clipPath>
</defs>
</svg>
