<svg xmlns="http://www.w3.org/2000/svg" viewBox="0 0 1080 1080"><defs><style>.cls-1{fill:#1c94d2;}.cls-2{font-size:135.15px;fill:#231f20;font-family:ProximaNova-Black, Proxima Nova;font-weight:800;}</style></defs><g id="company_details" data-name="company details"><path class="cls-1" d="M549.83,188.78v127.5c0,13.13-1.38,26.79,2.6,39.52,4.22,13.5,15.33,24.58,26.44,32.81,19.54,14.49,44,21.34,67.6,13.66l31-10.13L766,363.27l15.71-5.13c-12.18-32-23.19-66.39-56.06-55.18l-20.31,7c-35.07,13.11-87.65-16.42-87.65-60.59l-.06-34.21C617,195.05,589.45,188.8,549.83,188.78Z"/><path class="cls-1" d="M295.56,358.11l73.87,23.39,47.68,15.1c12.51,4,25.12,9.4,38.47,9.45,14.13.06,28.06-7.19,39.25-15.29,19.71-14.25,33.63-35.51,33.43-60.32q-.13-16.33-.29-32.66l-.8-93.08L527,188.19c-34.16,1.95-70.29,2.06-69.53,36.78l.58,21.49c1.91,37.39-42.12,78.6-84.23,65.26l-32.62-10.27C321.81,296,307.54,320.34,295.56,358.11Z"/><path class="cls-1" d="M681.61,659.28,635.5,597l-29.76-40.19c-7.82-10.54-14.84-22.35-25.62-30.21-11.42-8.34-27-10.63-40.77-10.64-24.32,0-48.06,9-62.45,29.26L458,571.85l-53.93,75.86-9.57,13.46c28.81,18.45,58.14,39.55,77.89,11l12.13-17.74c20.39-31.41,80.21-39,106.5-3.47l20.4,27.45C623.89,694.23,649.76,682.85,681.61,659.28Z"/><path class="cls-1" d="M789.68,376.34l-73.86,23.44-47.67,15.13c-12.51,4-25.95,6.79-36.88,14.43-11.59,8.11-18.79,22.05-23.28,35.12-7.89,23-7,48.4,7.44,68.57q9.51,13.26,19.05,26.52l54.28,75.61,9.64,13.42c26.79-21.28,56.26-42.19,35.63-70.13l-12.85-17.22c-23.1-29.47-10.86-88.51,31.24-101.87L785,449C804,442.26,801.65,414.11,789.68,376.34Z"/><path class="cls-1" d="M375.85,650.36l46.25-62.17L452,548.06c7.83-10.53,17.09-20.67,21.5-33.26,4.67-13.35,2.37-28.87-1.63-42.1-7-23.29-22.57-43.39-46.09-51.31l-31-10.4-88.23-29.65-15.66-5.26c-9.31,32.92-21,67.11,12,77.73l20.5,6.48c36,10.41,60.52,65.49,34.16,100.93L337.22,588.7C325.69,605.24,344.07,626.7,375.85,650.36Z"/><text class="cls-2" transform="translate(145.58 850.73)">INDOSCULP</text></g></svg>